AND.... Here is episode 2.  As long as there is interest, I'll keep em coming as they become available. 

Be forewarned, my upload speed is NOT good, so please be patient.

Comments/feedback is always appreciated. :o)

-pixie

Format                           : AVI
Format/Info                      : Audio Video Interleave
File size                        : 377 MiB
Duration                         : 45mn 10s
Overall bit rate                 : 1 166 Kbps

Video
Format                           : xvid
Codec ID                         : xvid
Duration                         : 45mn 9s
Bit rate                         : 1 024 Kbps
Width                            : 640 pixels
Height                           : 360 pixels
Display aspect ratio             : 16:9
Frame rate                       : 29.970 fps
Bits/(Pixel*Frame)               : 0.148
Stream size                      : 331 MiB (88%)

Audio
ID                               : 1
Format                           : MPEG Audio
Format version                   : Version 1
Format profile                   : Layer 3
Mode                             : Joint stereo
Format_Settings_ModeExtension    : MS Stereo
Codec ID                         : 55
Codec ID/Hint                    : MP3
Duration                         : 45mn 10s
Bit rate mode                    : Constant
Bit rate                         : 128 Kbps
Channel(s)                       : 2 channels
Sampling rate                    : 48.0 KHz
Stream size                      : 41.4 MiB (11%)
Alignment                        : Aligned on interleaves
Interleave, duration             : 24 ms (0.72 video frame)
Writing library                  : LAME3.97 (beta)

